<svg enable-background="new 0 0 24 24" height="24" viewBox="0 0 24 24" width="24" xmlns="http://www.w3.org/2000/svg"><path d="m0 0h24v24h-24z" fill="none"/><path d="m19 3h-14c-1.1 0-2 .9-2 2v14c0 1.1.9 2 2 2h14c1.1 0 2-.9 2-2v-14c0-1.1-.9-2-2-2zm0 16h-14v-14h14z"/><path d="m6.25 7.72h5v1.5h-5z"/><path d="m13 15.75h5v1.5h-5z"/><path d="m13 13.25h5v1.5h-5z"/><path d="m8 18h1.5v-2h2v-1.5h-2v-2h-1.5v2h-2v1.5h2z"/><path d="m14.09 10.95 1.41-1.41 1.41 1.41 1.06-1.06-1.41-1.42 1.41-1.41-1.06-1.06-1.41 1.41-1.41-1.41-1.06 1.06 1.41 1.41-1.41 1.42z"/></svg>