<?xml version="1.0" encoding="UTF-8"?>
<svg xmlns="http://www.w3.org/2000/svg" xmlns:xlink="http://www.w3.org/1999/xlink" width="150px" height="150px" viewBox="0 0 150 150" version="1.1">
<g id="surface1">
<path style=" stroke:none;fill-rule:nonzero;fill:rgb(0%,0%,0%);fill-opacity:1;" d="M 137.597656 63.414062 L 79.417969 9.886719 C 75.488281 6.273438 69.40625 6.398438 65.628906 10.175781 L 9.375 66.429688 L 9.375 145.3125 L 60.9375 145.3125 L 60.9375 96.09375 L 89.0625 96.09375 L 89.0625 145.3125 L 140.625 145.3125 L 140.625 66.199219 Z M 72.667969 16.632812 C 72.75 16.632812 72.699219 16.648438 72.664062 16.683594 C 72.625 16.648438 72.585938 16.632812 72.667969 16.632812 Z M 131.25 135.9375 L 98.4375 135.9375 L 98.4375 96.09375 C 98.4375 90.917969 94.238281 86.71875 89.0625 86.71875 L 60.9375 86.71875 C 55.761719 86.71875 51.5625 90.917969 51.5625 96.09375 L 51.5625 135.9375 L 18.75 135.9375 L 18.75 70.3125 L 72.667969 16.804688 C 72.671875 16.800781 72.671875 16.796875 72.675781 16.792969 L 131.25 70.3125 Z M 131.25 135.9375 "/>
</g>
</svg>
