<?xml version="1.0" encoding="UTF-8"?>
<svg xmlns="http://www.w3.org/2000/svg" xmlns:xlink="http://www.w3.org/1999/xlink" width="150px" height="150px" viewBox="0 0 150 150" version="1.1">
<g id="surface1">
<path style=" stroke:none;fill-rule:evenodd;fill:rgb(20%,20%,20%);fill-opacity:1;" d="M 75 81.25 C 92.265625 81.25 106.25 67.265625 106.25 50 C 106.25 32.734375 92.265625 18.75 75 18.75 C 57.734375 18.75 43.75 32.734375 43.75 50 C 43.75 67.265625 57.734375 81.25 75 81.25 Z M 100 50 C 100 63.8125 88.8125 75 75 75 C 61.1875 75 50 63.8125 50 50 C 50 36.1875 61.1875 25 75 25 C 88.8125 25 100 36.1875 100 50 Z M 100 50 "/>
<path style=" stroke:none;fill-rule:evenodd;fill:rgb(20%,20%,20%);fill-opacity:1;" d="M 18.75 112.5 C 18.75 96.984375 56.226562 87.5 75 87.5 C 93.773438 87.5 131.25 96.984375 131.25 112.5 L 131.25 131.25 L 18.75 131.25 Z M 25 112.5 C 25 111.339844 25.6875 109.441406 28.824219 106.914062 C 31.886719 104.441406 36.457031 102.085938 41.992188 100.046875 C 53.0625 95.972656 66.394531 93.75 75 93.75 C 83.605469 93.75 96.9375 95.972656 108.007812 100.046875 C 113.542969 102.085938 118.113281 104.441406 121.175781 106.914062 C 124.3125 109.441406 125 111.339844 125 112.5 L 125 125 L 25 125 Z M 25 112.5 "/>
</g>
</svg>
