<svg fill="none" height="14" viewBox="0 0 14 14" width="14" xmlns="http://www.w3.org/2000/svg"><clipPath id="a"><path d="m0 0h14v14h-14z"/></clipPath><g clip-path="url(#a)" stroke="#000001" stroke-linecap="round" stroke-linejoin="round"><path d="m.5 7c0 1.28558.381218 2.54229 1.09545 3.6112.71423 1.0689 1.72939 1.9021 2.91711 2.394 1.18772.492 2.49465.6207 3.75553.3699 1.26087-.2508 2.41911-.8699 3.32811-1.7789s1.5281-2.06723 1.7789-3.32811c.2508-1.26087.1221-2.56781-.3699-3.75553s-1.3251-2.20288-2.394-2.91711c-1.06891-.714227-2.32562-1.095446-3.6112-1.095446-1.86203-.00206-3.65306.714356-5 1.999996"/><path d="m2.5.5-.5 2 2 .5"/><path d="m7.00002 3.5v4l-2.6 1.3"/></g></svg>