<svg fill="none" height="14" viewBox="0 0 14 14" width="14" xmlns="http://www.w3.org/2000/svg" xmlns:xlink="http://www.w3.org/1999/xlink"><clipPath id="a"><path d="m0 0h14v14h-14z"/></clipPath><g clip-path="url(#a)" stroke="#000001" stroke-linecap="round" stroke-linejoin="round"><path d="m13.5 6.91998c-.0097 1.11116-.2622 2.20676-.74 3.21002"/><path d="m7 13.42c-.85359 0-1.69883-.1681-2.48744-.4948-.78862-.3267-1.50517-.8054-2.10875-1.409-1.21899-1.219-1.90381-2.87231-1.90381-4.59622"/><path d="m9 8.91998-2-2.5h-3"/><path d="m12 12.92c.8284 0 1.5-.6716 1.5-1.5s-.6716-1.50002-1.5-1.50002-1.5.67162-1.5 1.50002.6716 1.5 1.5 1.5z"/><path d="m.919983 4.52c.217937-.54464.510757-1.05624.869997-1.52"/><path d="m3.71997 1.27999c.56356-.325419 1.17414-.561553 1.81-.700003"/><path d="m13.08 4.52c-.2179-.54464-.5107-1.05624-.87-1.52"/><path d="m10.28 1.27999c-.56359-.325419-1.17416-.561553-1.81003-.700003"/></g></svg>